<svg xmlns="http://www.w3.org/2000/svg" viewBox="0 0 171.669 78.293"><defs><style>.cls-5{fill:#5e2a15}.cls-13,.cls-14,.cls-15{mix-blend-mode:multiply}.cls-11,.cls-13{fill:#e12013}.cls-12{fill:#fdd654}.cls-14{fill:#b6200e}.cls-15{fill:#5fb152}.cls-16{fill:#fff}.cls-17{fill:#fffde3}</style></defs><g style="isolation:isolate"><g id="Layer_2" data-name="Layer 2"><g id="Layer_1-2" data-name="Layer 1"><path d="M171.669 59.949c0 10.128-38.428 18.344-85.835 18.344S0 70.077 0 59.949s38.429-18.334 85.834-18.334 85.835 8.206 85.835 18.334Z" style="fill:#bbe4f3"/><path d="M169.522 59.491c0 9.878-37.465 17.885-83.688 17.885S2.142 69.369 2.142 59.491s37.47-17.876 83.692-17.876 83.688 8.001 83.688 17.876Z" style="fill:#fffdf6"/><path d="M156.17 57.963c0-1.209-2.6-2.307-6.771-3.088 1.768-1.069 1.391-2.27-1.572-3.34-3.418-1.234-9.5-2.007-16.139-2.209-.878-1.289-4.724-2.486-11.013-3.18a108.208 108.208 0 0 0-18.149-.328 82.5 82.5 0 0 0-16.616-1.46 86.255 86.255 0 0 0-15.956 1.314 109.538 109.538 0 0 0-17.258.3c-6.373.663-10.375 1.845-11.426 3.126-6.654.173-12.841.916-16.419 2.131-3.278 1.116-3.681 2.393-1.7 3.517-4.591.785-7.5 1.935-7.5 3.214 0 1.217 2.607 2.31 6.778 3.093-1.77 1.069-1.394 2.269 1.57 3.336 3.422 1.237 9.5 2.01 16.137 2.212.881 1.293 4.73 2.487 11.012 3.18a108.161 108.161 0 0 0 18.154.33 82.9 82.9 0 0 0 16.608 1.454 85.928 85.928 0 0 0 15.954-1.31 108.625 108.625 0 0 0 17.261-.306c6.378-.66 10.374-1.84 11.423-3.126 6.661-.168 12.846-.913 16.426-2.132 3.275-1.112 3.675-2.386 1.7-3.51 4.589-.788 7.496-1.935 7.496-3.218Z" style="fill:#797a9d"/><path class="cls-5" d="M144.7 56.662v-34.7H26.954V56.8h.055c0 6.944 26.353 12.575 58.855 12.575s58.855-5.631 58.855-12.575c0-.046-.019-.092-.019-.138Z"/><path d="M85.864 54.377c32.278 0 58.477-5.552 58.834-12.429V26.556H26.954V41.8h.055c0 6.949 26.353 12.577 58.855 12.577Z" style="fill:#dbd5a5"/><path d="M144.719 37.209c0-.046-.017-.1-.021-.141v.279c.002-.047.021-.092.021-.138Z" style="fill:#efeff0"/><path class="cls-5" d="M85.864 49.781c32.278 0 58.477-5.554 58.834-12.434V21.961H26.954v15.248h.055c0 6.941 26.353 12.572 58.855 12.572Z"/><path d="M144.7 56.662v-34.7h-33.18v46.16c19.653-2.044 33.2-6.346 33.2-11.319-.001-.049-.02-.095-.02-.141Z" style="mix-blend-mode:multiply;fill:#5e2a15"/><path d="M50.835 21.961h-6.158v43.82c1.917.4 4 .765 6.158 1.107Z" style="mix-blend-mode:screen;fill:#5e2a15"/><path d="M144.69 21.961c0 6.947-26.351 12.575-58.859 12.575s-58.852-5.628-58.852-12.575S53.332 9.389 85.831 9.389s58.859 5.627 58.859 12.572Z" style="fill:#360c00"/><path class="cls-5" d="M139.8 21.805c0 5.875-24.162 10.641-53.971 10.641s-53.96-4.766-53.96-10.641S56.03 11.157 85.831 11.157 139.8 15.924 139.8 21.805Z"/><path class="cls-11" d="M63.366 9.438c.177 4.169-4 3.882-4 3.882h-4.321s-4.18.287-4-3.882c.171-3.884 3.869-8.1 6.13-8a.129.129 0 0 1 .039 0 .066.066 0 0 1 .025 0c2.261-.105 5.961 4.116 6.127 8Z"/><path class="cls-12" d="M52.306 10.662s-.55-.5-.417-.779.427-.153.522.248.113.822-.105.531ZM53.039 8.047s-.224-.718.021-.892.449.085.33.477-.303.768-.351.415ZM55.933 8.2s-.346-.663-.132-.877.457 0 .409.409-.164.813-.277.468ZM58.683 8.185s-.34-.669-.131-.883.457.009.411.415-.163.812-.28.468ZM61.3 8.136s-.532-.526-.4-.8.431-.137.515.266.095.827-.115.534ZM54.273 5.361s-.194-.611.019-.76.387.07.285.409-.26.67-.304.351ZM56.326 5.575s-.192-.623.025-.772.382.073.283.412-.265.666-.308.36ZM55.487 3.2s-.01-.468.167-.528.252.125.116.342-.313.414-.283.186ZM58.923 3.264s-.326-.326-.244-.492.269-.085.32.166.056.514-.076.326ZM57.112 3.255s-.228-.4-.1-.541.281-.006.263.248-.085.512-.163.293ZM58.323 5.575s-.4-.516-.249-.726.385-.071.409.284-.015.718-.16.442ZM60.394 5.743s-.469-.455-.343-.684.372-.122.446.229.073.712-.103.455ZM54.839 10.65s-.391-.644-.2-.871.453-.03.439.379-.104.822-.239.492ZM57.53 10.645s-.3-.692-.068-.89.45.037.377.443-.227.802-.309.447ZM60.169 10.659s-.259-.706-.021-.888.451.057.358.458-.274.785-.337.43ZM62.226 10.653s-.2-.727.055-.9.442.1.315.489-.33.769-.37.411Z"/><path class="cls-13" d="M56.756 1.525a1.156 1.156 0 0 1 .9 0Z"/><path class="cls-14" d="M59.363 13.32h-4.318a4.685 4.685 0 0 1-2.637-.693 3.112 3.112 0 0 1 2.229-.254s-1.077-1.078.212-1.1a4.872 4.872 0 0 1 2.308.565s-.268-.728.612-.565a1.643 1.643 0 0 1 1.179 1.027 3.56 3.56 0 0 0 2.465-4.155c-.375-3.477-3.157-5.715-4.524-5.77-1.011-.037-2.933 1.028-4.4 2.742 1.334-2.162 3.307-3.768 4.717-3.68a1.694 1.694 0 0 0-.454.091h.9a1.7 1.7 0 0 0-.445-.091c2.258-.141 5.99 4.1 6.156 8 .18 4.17-4 3.883-4 3.883Z"/><path class="cls-15" d="M57.9 13.372c0-.131-.244-.235-.551-.235s-.555.1-.555.235.247.233.555.233.551-.098.551-.233Z"/><path class="cls-16" d="M49.458 11.558a3.528 3.528 0 0 0 2.264 2.074 13.618 13.618 0 0 0 4.794.972 8.88 8.88 0 0 0 2.655-.321c1.4-.406 3.883-.92 4.492-2.441.982-2.466-1.972-3.27-3.779-2.845-2.2.517-4.323 1.482-6.6 1.662a8.054 8.054 0 0 1-1.167-.1c-1.294-.141-3.011-.259-2.659.999Z"/><path class="cls-17" d="M61.157 11.72a10.009 10.009 0 0 1-1.168.094c-2.279-.183-4.4-1.139-6.6-1.662-1.811-.424-4.762.379-3.78 2.841.613 1.525 3.1 2.038 4.493 2.445a8.709 8.709 0 0 0 2.652.321 13.662 13.662 0 0 0 4.794-.972 3.52 3.52 0 0 0 2.265-2.071c.353-1.259-1.364-1.14-2.656-.996Z"/><path class="cls-11" d="M82.537 8.328c.177 4.167-4.005 3.88-4.005 3.88h-4.317s-4.179.287-4-3.88c.164-3.887 3.861-8.107 6.131-8h.054c2.273-.107 5.963 4.113 6.137 8Z"/><path class="cls-12" d="M71.477 9.557s-.546-.511-.418-.785.427-.154.522.247.119.822-.104.538ZM72.208 6.941s-.224-.718.023-.892.446.08.33.473-.303.778-.353.419ZM75.1 7.091s-.342-.666-.131-.88.455.006.409.415-.164.81-.278.465ZM77.853 7.072s-.342-.666-.131-.88.455 0 .406.413-.164.813-.275.467ZM80.466 7.026s-.531-.525-.4-.8.439-.138.515.262.099.835-.115.538ZM73.443 4.259s-.2-.62.015-.774.391.078.293.416-.26.666-.308.358ZM75.5 4.467s-.194-.624.015-.774.391.074.291.412-.267.667-.306.362ZM74.661 2.094s-.017-.467.158-.529.257.125.123.342-.313.407-.281.187ZM78.1 2.155s-.334-.33-.246-.495.268-.082.322.165.053.517-.076.33ZM76.282 2.146s-.228-.4-.1-.541.283-.009.262.248-.088.506-.162.293ZM77.491 4.467s-.395-.52-.246-.731.387-.07.413.285-.02.714-.167.446ZM79.559 4.631s-.46-.452-.339-.688.375-.122.442.233.079.709-.103.455ZM74.012 9.538s-.4-.641-.2-.868.456-.03.44.376-.108.828-.24.492ZM76.7 9.532s-.3-.69-.066-.889.453.04.38.446-.233.794-.314.443ZM79.335 9.55s-.26-.708-.017-.892.45.061.353.461-.266.781-.336.431ZM81.4 9.541s-.2-.727.051-.889.448.092.321.486-.341.762-.372.403Z"/><path class="cls-13" d="M75.926.417a1.139 1.139 0 0 1 .9 0Z"/><path class="cls-14" d="M78.532 12.208h-4.317a4.638 4.638 0 0 1-2.636-.687 3.05 3.05 0 0 1 2.227-.253s-1.073-1.085.216-1.11a4.845 4.845 0 0 1 2.3.566s-.272-.728.615-.566a1.631 1.631 0 0 1 1.175 1.024 3.558 3.558 0 0 0 2.469-4.149c-.379-3.48-3.162-5.721-4.531-5.77C75.043 1.22 73.127 2.289 71.669 4 73 1.84 74.966.233 76.376.325a1.4 1.4 0 0 0-.45.092h.9a1.4 1.4 0 0 0-.447-.092c2.263-.143 5.987 4.1 6.161 8 .174 4.175-4.008 3.883-4.008 3.883Z"/><path class="cls-15" d="M77.073 12.264c0-.132-.25-.239-.553-.239s-.554.107-.554.239.246.228.554.228.553-.1.553-.228Z"/><path class="cls-16" d="M68.633 10.448a3.5 3.5 0 0 0 2.261 2.075 13.727 13.727 0 0 0 4.792.975 8.907 8.907 0 0 0 2.659-.324c1.4-.406 3.878-.92 4.487-2.444.987-2.463-1.966-3.263-3.784-2.838-2.2.518-4.321 1.475-6.6 1.658a9.253 9.253 0 0 1-1.165-.1c-1.29-.141-3.011-.258-2.65.998Z"/><path class="cls-17" d="M80.325 10.605a8.837 8.837 0 0 1-1.17.1c-2.276-.177-4.39-1.139-6.6-1.659-1.815-.425-4.765.376-3.78 2.842.605 1.524 3.093 2.044 4.486 2.44a8.859 8.859 0 0 0 2.661.327 13.623 13.623 0 0 0 4.794-.977 3.489 3.489 0 0 0 2.261-2.078c.358-1.255-1.359-1.136-2.652-.995Z"/><path class="cls-11" d="M101.706 8c.178 4.171-4 3.884-4 3.884h-4.322s-4.176.287-4-3.884c.167-3.88 3.863-8.1 6.131-8h.06c2.268-.1 5.964 4.121 6.131 8Z"/><path class="cls-12" d="M90.645 9.232s-.546-.513-.418-.782.431-.155.522.248.117.822-.104.534ZM91.38 6.614s-.224-.717.023-.892.447.089.328.479-.3.771-.351.413ZM94.275 6.77s-.344-.666-.137-.883.461.006.412.416-.164.812-.275.467ZM97.023 6.752s-.344-.67-.126-.88.454 0 .405.409-.173.813-.279.471ZM99.638 6.7s-.531-.529-.4-.8.438-.137.519.266.092.827-.119.534ZM92.616 3.932s-.2-.619.018-.772.385.073.285.414-.263.669-.303.358ZM94.669 4.14s-.195-.62.019-.772.383.075.286.417-.266.663-.305.355ZM93.833 1.77s-.016-.467.158-.529.257.129.122.34-.313.409-.28.189ZM97.269 1.831s-.334-.327-.249-.492.272-.088.323.165.057.514-.074.327ZM95.448 1.825s-.225-.406-.1-.547.286-.006.266.247-.082.514-.166.3ZM96.657 4.14s-.392-.511-.243-.728.387-.071.415.287-.019.715-.172.441ZM98.733 4.308s-.463-.453-.345-.685.371-.119.445.23.078.708-.1.455ZM93.182 9.214s-.394-.642-.2-.867.451-.031.433.382-.1.821-.233.485ZM95.867 9.211s-.294-.693-.061-.889.448.039.375.44-.227.801-.314.449ZM98.507 9.227s-.255-.709-.02-.89.453.059.36.459-.27.785-.34.431ZM100.564 9.214s-.2-.721.051-.886.447.1.32.486-.335.76-.371.4Z"/><path class="cls-13" d="M95.1.1a1.293 1.293 0 0 1 .445-.1 1.274 1.274 0 0 1 .448.1Z"/><path class="cls-14" d="M97.705 11.885h-4.321a4.656 4.656 0 0 1-2.639-.691 3.1 3.1 0 0 1 2.231-.251s-1.071-1.082.213-1.109a4.894 4.894 0 0 1 2.311.566s-.271-.726.613-.568a1.655 1.655 0 0 1 1.18 1.027 3.559 3.559 0 0 0 2.47-4.149C99.376 3.233 96.6.994 95.226.939 94.216.9 92.3 1.966 90.841 3.682c1.33-2.165 3.3-3.773 4.7-3.678A1.293 1.293 0 0 0 95.1.1h.9a1.274 1.274 0 0 0-.455-.1c2.268-.144 5.994 4.1 6.161 8 .178 4.172-4.001 3.885-4.001 3.885Z"/><path class="cls-15" d="M96.247 11.937c0-.132-.252-.233-.556-.233s-.552.1-.552.233.245.235.552.235.556-.102.556-.235Z"/><path class="cls-16" d="M87.8 10.125a3.509 3.509 0 0 0 2.27 2.074 13.5 13.5 0 0 0 4.786.969 8.641 8.641 0 0 0 2.662-.318c1.393-.407 3.883-.916 4.483-2.445.984-2.465-1.961-3.265-3.773-2.838-2.212.517-4.323 1.479-6.6 1.66a9.549 9.549 0 0 1-1.174-.1c-1.29-.139-3.009-.255-2.654.998Z"/><path class="cls-17" d="M99.5 10.283a7.476 7.476 0 0 1-1.166.092c-2.277-.177-4.395-1.14-6.6-1.656-1.812-.428-4.767.373-3.781 2.839.61 1.53 3.1 2.038 4.491 2.447a8.731 8.731 0 0 0 2.656.32 13.63 13.63 0 0 0 4.789-.971 3.508 3.508 0 0 0 2.265-2.075c.346-1.252-1.366-1.139-2.654-.996Z"/><path class="cls-11" d="M120.872 9.614c.183 4.174-4 3.884-4 3.884h-4.314s-4.18.29-4-3.884c.167-3.883 3.863-8.1 6.132-8h.05c2.273-.097 5.966 4.117 6.132 8Z"/><path class="cls-12" d="M109.814 10.846s-.544-.51-.421-.783.434-.152.527.248.114.822-.106.535ZM110.546 8.23s-.22-.72.025-.9.448.083.329.479-.3.779-.354.421ZM113.444 8.383s-.345-.669-.132-.883.451.006.41.416-.166.813-.278.467ZM116.192 8.361s-.341-.669-.129-.88.455.007.411.414-.167.815-.282.466ZM118.806 8.319s-.524-.529-.393-.8.434-.138.517.265.089.822-.124.535ZM111.782 5.548s-.194-.62.02-.77.386.071.287.41-.258.671-.307.36ZM113.837 5.753s-.192-.62.019-.771.387.077.288.416-.264.661-.307.355ZM113 3.383s-.012-.47.164-.531.252.131.122.345-.318.41-.286.186ZM116.435 3.446s-.331-.329-.243-.494.269-.085.319.165.052.515-.076.329ZM114.623 3.437s-.233-.408-.1-.542.278-.01.258.247-.081.508-.158.295ZM115.831 5.753s-.394-.517-.247-.728.388-.067.409.285-.012.717-.162.443ZM117.9 5.924s-.456-.452-.338-.688.374-.119.447.226.074.712-.109.462ZM112.352 10.827s-.4-.639-.2-.867.457-.031.446.382-.115.821-.246.485ZM115.042 10.821s-.3-.693-.07-.889.453.04.377.443-.225.798-.307.446ZM117.677 10.836s-.258-.708-.018-.892.45.062.358.461-.276.786-.34.431ZM119.735 10.827s-.2-.721.051-.889.445.1.322.489-.334.764-.373.4Z"/><path class="cls-13" d="M114.263 1.709a1.4 1.4 0 0 1 .453-.092 1.37 1.37 0 0 1 .447.092Z"/><path class="cls-14" d="M116.868 13.5h-4.314a4.7 4.7 0 0 1-2.634-.687 3.085 3.085 0 0 1 2.227-.257s-1.078-1.079.213-1.1a4.861 4.861 0 0 1 2.305.566s-.27-.731.613-.566a1.65 1.65 0 0 1 1.183 1.025 3.555 3.555 0 0 0 2.462-4.153c-.373-3.476-3.158-5.715-4.528-5.769-1-.043-2.929 1.027-4.388 2.741 1.329-2.164 3.3-3.769 4.709-3.677a1.4 1.4 0 0 0-.453.092h.9a1.37 1.37 0 0 0-.447-.092c2.261-.146 5.99 4.1 6.156 8 .183 4.165-4.004 3.877-4.004 3.877Z"/><path class="cls-15" d="M115.416 13.55c0-.126-.251-.23-.556-.23s-.556.1-.556.23.25.235.556.235.556-.101.556-.235Z"/><path class="cls-16" d="M106.972 11.741a3.512 3.512 0 0 0 2.263 2.074 13.715 13.715 0 0 0 4.791.969 8.764 8.764 0 0 0 2.655-.321c1.4-.406 3.881-.92 4.49-2.444.983-2.462-1.967-3.266-3.777-2.838-2.206.519-4.328 1.478-6.605 1.655a8.554 8.554 0 0 1-1.165-.094c-1.291-.142-3.012-.26-2.652.999Z"/><path class="cls-17" d="M118.669 11.894a8.949 8.949 0 0 1-1.171.1c-2.277-.177-4.4-1.139-6.6-1.659-1.812-.424-4.759.379-3.779 2.842.607 1.524 3.092 2.038 4.488 2.441a8.757 8.757 0 0 0 2.657.326 13.573 13.573 0 0 0 4.792-.974 3.5 3.5 0 0 0 2.265-2.074c.357-1.259-1.362-1.143-2.652-1.002Z"/><path class="cls-11" d="M140.044 14.213c.176 4.17-4 3.88-4 3.88h-4.32s-4.172.29-4-3.88c.168-3.884 3.862-8.1 6.128-8a.138.138 0 0 1 .035 0 .114.114 0 0 1 .026 0c2.268-.103 5.965 4.116 6.131 8Z"/><path class="cls-12" d="M128.985 15.44s-.54-.506-.418-.778.428-.153.522.244.12.822-.104.534ZM129.718 12.822s-.225-.717.017-.888.451.082.34.476-.306.773-.357.412ZM132.612 12.975s-.345-.662-.131-.876.457 0 .413.415-.17.806-.282.461ZM135.366 12.963s-.345-.669-.134-.883.456.006.413.412-.169.813-.279.471ZM137.976 12.911s-.53-.522-.393-.792.433-.142.516.26.089.828-.123.532ZM130.954 10.14s-.2-.618.02-.764.388.064.287.413-.261.666-.307.351ZM133.005 10.351s-.188-.623.023-.77.387.07.287.412-.269.666-.31.358ZM132.168 7.977s-.007-.461.167-.523.252.126.114.343-.31.409-.281.18ZM135.6 8.044s-.329-.33-.244-.5.27-.082.328.165.052.521-.084.335ZM133.79 8.035s-.227-.41-.1-.544.282-.007.262.25-.084.508-.162.294ZM135 10.351s-.4-.517-.246-.731.392-.07.415.288-.018.715-.169.443ZM137.073 10.519s-.468-.456-.346-.685.376-.119.447.224.078.714-.101.461ZM131.519 15.422s-.39-.638-.2-.867.457-.028.438.382-.098.822-.238.485ZM134.209 15.419s-.3-.69-.064-.886.452.033.372.444-.224.794-.308.442ZM136.849 15.432s-.262-.7-.019-.886.45.058.355.461-.27.785-.336.425ZM138.9 15.429s-.195-.728.055-.893.443.1.316.486-.33.764-.371.407Z"/><path class="cls-13" d="M133.436 6.306a1.52 1.52 0 0 1 .451-.095 1.563 1.563 0 0 1 .447.095Z"/><path class="cls-14" d="M136.044 18.093h-4.32a4.674 4.674 0 0 1-2.635-.691 3.127 3.127 0 0 1 2.224-.251s-1.074-1.081.216-1.105a4.834 4.834 0 0 1 2.307.568s-.269-.73.616-.568a1.647 1.647 0 0 1 1.176 1.026 3.56 3.56 0 0 0 2.472-4.152c-.377-3.48-3.164-5.719-4.528-5.772-1.013-.039-2.933 1.028-4.393 2.745 1.332-2.166 3.3-3.771 4.713-3.682a1.52 1.52 0 0 0-.451.095h.9a1.563 1.563 0 0 0-.447-.095c2.262-.141 5.991 4.1 6.157 8 .169 4.172-4.007 3.882-4.007 3.882Z"/><path class="cls-15" d="M134.583 18.145c0-.125-.249-.233-.553-.233s-.553.108-.553.233.248.238.553.238.553-.104.553-.238Z"/><path class="cls-16" d="M126.138 16.333a3.532 3.532 0 0 0 2.262 2.077 13.661 13.661 0 0 0 4.793.972 8.967 8.967 0 0 0 2.662-.323c1.394-.408 3.876-.917 4.483-2.442.983-2.466-1.968-3.269-3.78-2.839-2.2.514-4.323 1.476-6.6 1.654a7.456 7.456 0 0 1-1.164-.1c-1.294-.132-3.01-.252-2.656 1.001Z"/><path class="cls-17" d="M137.84 16.492a9.648 9.648 0 0 1-1.17.1c-2.28-.184-4.4-1.14-6.6-1.659-1.814-.428-4.765.376-3.781 2.841.607 1.521 3.094 2.038 4.49 2.444a8.758 8.758 0 0 0 2.655.318 13.67 13.67 0 0 0 4.794-.971 3.517 3.517 0 0 0 2.264-2.073c.351-1.26-1.361-1.14-2.652-1Z"/><path class="cls-11" d="M44.192 17.824c.179 4.17-4 3.88-4 3.88h-4.32s-4.177.29-4-3.88c.166-3.884 3.859-8.1 6.127-8a.078.078 0 0 1 .035-.006.05.05 0 0 1 .025.006c2.273-.102 5.968 4.116 6.133 8Z"/><path class="cls-12" d="M33.134 19.052s-.547-.51-.418-.785.431-.15.521.248.119.824-.103.537ZM33.867 16.434s-.223-.721.022-.893.452.083.331.483-.301.764-.353.41ZM36.764 16.59s-.343-.67-.132-.883.457.006.41.412-.168.813-.278.471ZM39.514 16.571s-.346-.666-.13-.88.453.006.406.41-.165.812-.276.47ZM42.129 16.522s-.534-.525-.4-.8.438-.141.517.269.091.824-.117.531ZM35.1 13.754s-.2-.623.016-.77.388.074.29.41-.262.672-.306.36ZM37.157 13.959s-.191-.62.022-.77.384.074.283.416-.262.663-.305.354ZM36.319 11.591s-.015-.464.163-.528.255.125.119.341-.311.41-.282.187ZM39.753 11.652s-.331-.33-.239-.495.265-.085.317.165.053.514-.078.33ZM37.938 11.647s-.227-.407-.1-.544.287-.007.265.247-.084.504-.165.297ZM39.149 13.959s-.4-.514-.25-.728.391-.07.416.288-.021.718-.166.44ZM41.222 14.127s-.462-.452-.346-.685.375-.122.447.23.082.709-.101.455ZM35.667 19.033s-.391-.64-.192-.87.45-.03.432.382-.107.822-.24.488ZM38.356 19.027s-.3-.69-.064-.885.451.04.379.443-.229.797-.315.442ZM41 19.043s-.257-.706-.022-.886.453.058.359.458-.275.785-.337.428ZM43.053 19.033s-.2-.726.05-.888.449.1.318.492-.328.763-.368.396Z"/><path class="cls-13" d="M37.585 9.914a1.547 1.547 0 0 1 .451-.092 1.494 1.494 0 0 1 .445.092Z"/><path class="cls-14" d="M40.193 21.7h-4.321a4.631 4.631 0 0 1-2.637-.693 3.15 3.15 0 0 1 2.231-.251s-1.072-1.078.213-1.1a4.832 4.832 0 0 1 2.3.566s-.267-.734.618-.566a1.635 1.635 0 0 1 1.177 1.024 3.559 3.559 0 0 0 2.467-4.153c-.379-3.476-3.159-5.713-4.529-5.771-1.009-.036-2.929 1.026-4.388 2.741 1.331-2.157 3.3-3.768 4.708-3.676a1.547 1.547 0 0 0-.451.092h.9a1.494 1.494 0 0 0-.445-.092c2.263-.143 5.991 4.107 6.156 8 .179 4.173-3.999 3.879-3.999 3.879Z"/><path class="cls-15" d="M38.734 21.756c0-.128-.247-.233-.555-.233s-.551.105-.551.233.244.238.551.238.555-.103.555-.238Z"/><path class="cls-16" d="M30.286 19.944a3.522 3.522 0 0 0 2.271 2.075 13.566 13.566 0 0 0 4.788.971 8.58 8.58 0 0 0 2.66-.324c1.392-.4 3.879-.913 4.485-2.44.987-2.466-1.964-3.267-3.776-2.842-2.209.516-4.322 1.478-6.6 1.659a8.009 8.009 0 0 1-1.173-.1c-1.29-.138-3.006-.255-2.655 1.001Z"/><path class="cls-17" d="M41.988 20.1a8.73 8.73 0 0 1-1.171.093c-2.277-.176-4.392-1.138-6.6-1.655-1.812-.431-4.767.372-3.78 2.838.61 1.528 3.092 2.038 4.489 2.444a8.687 8.687 0 0 0 2.657.321 13.549 13.549 0 0 0 4.788-.975 3.5 3.5 0 0 0 2.268-2.066c.361-1.253-1.363-1.137-2.651-1Z"/><path class="cls-11" d="M101.706 25c.178 4.171-4 3.884-4 3.884h-4.322s-4.176.287-4-3.884c.167-3.88 3.863-8.1 6.131-8h.06c2.268-.1 5.964 4.117 6.131 8Z"/><path class="cls-12" d="M90.645 26.229s-.546-.51-.418-.786.431-.149.522.251.117.822-.104.535ZM91.38 23.607s-.224-.717.023-.888.447.082.328.479-.3.77-.351.409ZM94.275 23.764s-.344-.67-.137-.881.461 0 .412.413-.164.809-.275.468ZM97.023 23.745s-.344-.663-.126-.88.454 0 .405.412-.173.81-.279.468ZM99.638 23.7s-.531-.526-.4-.792.438-.143.519.26.092.818-.119.532ZM92.616 20.928s-.2-.62.018-.77.385.073.285.412-.263.672-.303.358ZM94.669 21.133s-.195-.617.019-.768.383.074.286.413-.266.663-.305.355ZM93.833 18.768s-.016-.471.158-.532.257.125.122.346-.313.406-.28.186ZM97.269 18.829s-.334-.333-.249-.5.272-.089.323.162.057.525-.074.338ZM95.448 18.82s-.225-.41-.1-.544.286-.009.266.247-.082.51-.166.297ZM96.657 21.133s-.392-.511-.243-.728.387-.063.415.29-.019.712-.172.438ZM98.733 21.3s-.463-.452-.345-.685.371-.122.445.227.078.716-.1.458ZM93.182 26.211s-.394-.643-.2-.874.451-.031.433.385-.1.825-.233.489ZM95.867 26.2s-.294-.69-.061-.888.448.042.375.442-.227.802-.314.446ZM98.507 26.22s-.255-.709-.02-.89.453.065.36.462-.27.782-.34.428ZM100.564 26.211s-.2-.728.051-.89.447.1.32.49-.335.757-.371.4Z"/><path class="cls-13" d="M95.1 17.091a1.445 1.445 0 0 1 .445-.091 1.422 1.422 0 0 1 .448.089Z"/><path class="cls-14" d="M97.705 28.881h-4.321a4.684 4.684 0 0 1-2.639-.691 3.122 3.122 0 0 1 2.231-.253s-1.071-1.082.213-1.11a4.877 4.877 0 0 1 2.311.573s-.271-.729.613-.571a1.662 1.662 0 0 1 1.18 1.03 3.559 3.559 0 0 0 2.47-4.152c-.384-3.476-3.164-5.717-4.534-5.771-1.01-.037-2.927 1.029-4.385 2.74 1.33-2.159 3.3-3.767 4.7-3.672a1.445 1.445 0 0 0-.448.089h.9a1.422 1.422 0 0 0-.451-.093c2.268-.149 5.994 4.1 6.161 8 .178 4.168-4.001 3.881-4.001 3.881Z"/><path class="cls-15" d="M96.247 28.933c0-.128-.252-.233-.556-.233s-.552.105-.552.233.245.235.552.235.556-.104.556-.235Z"/><path class="cls-16" d="M87.8 27.124a3.513 3.513 0 0 0 2.27 2.068 13.409 13.409 0 0 0 4.786.969 8.58 8.58 0 0 0 2.662-.318c1.393-.4 3.883-.913 4.483-2.441.984-2.468-1.961-3.269-3.773-2.844-2.212.522-4.323 1.481-6.6 1.662a8.02 8.02 0 0 1-1.174-.1c-1.29-.139-3.009-.252-2.654 1.004Z"/><path class="cls-17" d="M99.5 27.276a8.432 8.432 0 0 1-1.166.095c-2.277-.177-4.395-1.14-6.6-1.655-1.812-.428-4.767.376-3.781 2.838.61 1.527 3.1 2.041 4.491 2.444a8.86 8.86 0 0 0 2.656.324 13.674 13.674 0 0 0 4.789-.971 3.513 3.513 0 0 0 2.265-2.079c.346-1.252-1.366-1.136-2.654-.996Z"/><path class="cls-11" d="M120.872 22.858c.183 4.168-4 3.878-4 3.878h-4.314s-4.18.29-4-3.878c.167-3.882 3.863-8.1 6.132-8h.05c2.273-.102 5.966 4.118 6.132 8Z"/><path class="cls-12" d="M109.82 24.084s-.55-.507-.427-.782.434-.153.527.247.118.825-.1.535ZM110.546 21.472s-.22-.728.025-.9.448.086.329.484-.3.767-.354.416ZM113.444 21.625s-.345-.673-.132-.884.455 0 .41.413-.166.81-.278.471ZM116.192 21.6s-.341-.67-.129-.884.455.007.411.413-.167.819-.282.471ZM118.811 21.555s-.529-.527-.4-.795.434-.141.517.26.091.828-.117.535ZM111.782 18.786s-.194-.62.023-.769.383.073.284.415-.258.668-.307.354ZM113.837 18.991s-.192-.62.019-.767.387.07.288.413-.264.663-.307.354ZM113 16.623s-.012-.468.167-.525.249.125.119.341-.318.407-.286.184ZM116.435 16.688s-.331-.331-.243-.5.269-.086.319.165.055.518-.076.335ZM114.623 16.678s-.228-.406-.1-.55.278 0 .258.254-.081.507-.158.296ZM115.831 18.991s-.394-.511-.247-.727.388-.071.409.29-.012.712-.162.437ZM117.9 19.162s-.456-.455-.338-.684.374-.123.447.226.074.712-.109.458ZM112.352 24.068s-.393-.644-.2-.867.457-.031.446.379-.115.82-.246.488ZM115.042 24.06s-.3-.691-.07-.89.453.04.377.446-.225.795-.307.444ZM117.677 24.081s-.258-.712-.018-.895.45.061.358.461-.276.786-.34.434ZM119.735 24.072s-.2-.727.051-.892.445.1.322.488-.334.762-.373.404Z"/><path class="cls-13" d="M114.263 14.949a1.393 1.393 0 0 1 .453-.089 1.368 1.368 0 0 1 .447.089Z"/><path class="cls-14" d="M116.868 26.736h-4.314a4.6 4.6 0 0 1-2.634-.691 3.1 3.1 0 0 1 2.227-.25s-1.078-1.082.213-1.107a4.861 4.861 0 0 1 2.305.566s-.27-.727.613-.566a1.646 1.646 0 0 1 1.183 1.025 3.553 3.553 0 0 0 2.462-4.15c-.373-3.479-3.158-5.716-4.528-5.768-1-.046-2.929 1.026-4.388 2.737 1.329-2.159 3.3-3.766 4.709-3.672a1.393 1.393 0 0 0-.453.089h.9a1.368 1.368 0 0 0-.447-.089c2.265-.149 5.99 4.094 6.156 8 .183 4.166-4.004 3.876-4.004 3.876Z"/><path class="cls-15" d="M115.416 26.794c0-.132-.251-.238-.556-.238s-.552.106-.552.238.248.226.552.226.556-.101.556-.226Z"/><path class="cls-16" d="M106.972 24.98a3.5 3.5 0 0 0 2.263 2.071 13.6 13.6 0 0 0 4.791.971 8.552 8.552 0 0 0 2.655-.324c1.4-.4 3.881-.91 4.49-2.438.983-2.462-1.967-3.266-3.777-2.841-2.206.513-4.328 1.481-6.605 1.662a9.168 9.168 0 0 1-1.165-.1c-1.291-.144-3.008-.257-2.652.999Z"/><path class="cls-17" d="M118.669 25.135a8.949 8.949 0 0 1-1.171.1c-2.277-.179-4.4-1.142-6.6-1.662-1.812-.423-4.759.379-3.779 2.842.607 1.527 3.092 2.038 4.488 2.444a8.787 8.787 0 0 0 2.657.324 13.662 13.662 0 0 0 4.8-.975 3.513 3.513 0 0 0 2.265-2.071c.349-1.262-1.37-1.143-2.66-1.002Z"/><path class="cls-11" d="M63.366 23.986c.177 4.174-4 3.883-4 3.883H55.04s-4.176.291-4-3.883c.171-3.88 3.869-8.1 6.13-7.992a.067.067 0 0 1 .033-.007c.012 0 .02 0 .027.007 2.27-.11 5.97 4.112 6.136 7.992Z"/><path class="cls-12" d="M52.306 25.221s-.55-.514-.422-.788.432-.148.527.25.113.825-.105.538ZM53.039 22.6s-.226-.722.021-.9.449.086.329.482-.302.775-.35.418ZM55.933 22.758s-.346-.669-.132-.886.457.009.409.419-.168.803-.277.467ZM58.683 22.739s-.346-.672-.132-.885.458.005.409.412-.16.816-.277.473ZM61.3 22.688s-.532-.526-.4-.794.435-.141.519.262.091.825-.119.532ZM54.273 19.92s-.2-.62.019-.771.387.074.285.414-.26.668-.304.357ZM56.326 20.124s-.192-.617.019-.767.388.074.289.41-.265.666-.308.357ZM55.487 17.76s-.01-.471.167-.531.251.125.116.344-.313.404-.283.187ZM58.923 17.817s-.326-.327-.244-.5.269-.085.32.168.056.522-.076.332ZM57.112 17.812s-.228-.41-.1-.544.281-.009.259.248-.083.506-.159.296ZM58.323 20.124s-.4-.513-.249-.724.385-.067.409.285-.015.715-.16.439ZM60.394 20.3s-.469-.462-.343-.694.372-.122.446.229.073.714-.103.465ZM54.839 25.2s-.391-.641-.2-.868.457-.03.443.379-.108.821-.243.489ZM57.53 25.2s-.3-.693-.068-.889.45.034.377.443-.227.793-.309.446ZM60.163 25.211s-.253-.708-.015-.892.451.062.352.461-.268.783-.337.431ZM62.226 25.2s-.2-.727.055-.889.442.1.315.489-.33.76-.37.4Z"/><path class="cls-13" d="M56.756 16.079a1.559 1.559 0 0 1 .448-.092 1.531 1.531 0 0 1 .447.092Z"/><path class="cls-14" d="M59.363 27.869H55.04a4.608 4.608 0 0 1-2.632-.693 3.138 3.138 0 0 1 2.226-.25s-1.074-1.076.215-1.107a4.845 4.845 0 0 1 2.3.569s-.264-.731.618-.569a1.65 1.65 0 0 1 1.182 1.027 3.551 3.551 0 0 0 2.464-4.146c-.375-3.477-3.162-5.717-4.529-5.768-1.006-.04-2.928 1.026-4.391 2.734C53.827 17.5 55.8 15.9 57.2 15.987a1.559 1.559 0 0 0-.448.092h.9a1.531 1.531 0 0 0-.447-.092c2.264-.14 5.992 4.1 6.162 8 .176 4.173-4.004 3.882-4.004 3.882Z"/><path class="cls-15" d="M57.9 27.925c0-.126-.248-.236-.559-.236s-.547.11-.547.236.247.235.547.235.559-.104.559-.235Z"/><path class="cls-16" d="M49.458 26.112a3.513 3.513 0 0 0 2.264 2.072 13.665 13.665 0 0 0 4.794.974 8.63 8.63 0 0 0 2.655-.323c1.4-.406 3.88-.917 4.49-2.441.984-2.466-1.97-3.266-3.781-2.845-2.205.519-4.32 1.482-6.6 1.662a7.9 7.9 0 0 1-1.167-.1c-1.292-.134-3.007-.257-2.655 1.001Z"/><path class="cls-17" d="M61.157 26.272a9.843 9.843 0 0 1-1.168.091c-2.28-.177-4.4-1.139-6.6-1.659-1.811-.425-4.762.376-3.78 2.842.608 1.527 3.1 2.034 4.489 2.444a8.783 8.783 0 0 0 2.656.323 13.732 13.732 0 0 0 4.794-.974 3.522 3.522 0 0 0 2.265-2.074c.353-1.253-1.365-1.137-2.656-.993Z"/><path class="cls-11" d="M82.537 25.887c.177 4.167-4.005 3.88-4.005 3.88h-4.317s-4.179.287-4-3.88c.164-3.887 3.861-8.1 6.131-8h.054c2.273-.1 5.963 4.113 6.137 8Z"/><path class="cls-12" d="M71.477 27.111s-.546-.509-.418-.781.427-.15.522.25.119.82-.104.531ZM72.208 24.5s-.224-.722.023-.893.446.08.33.477-.303.767-.353.416ZM75.1 24.652s-.342-.672-.131-.88.455 0 .409.413-.164.809-.278.467ZM77.853 24.634s-.342-.666-.131-.88.455 0 .406.409-.164.814-.275.471ZM80.466 24.585s-.531-.525-.4-.8.439-.134.515.267.099.823-.115.533ZM73.443 21.814s-.2-.617.015-.764.391.067.293.409-.26.67-.308.355ZM75.5 22.022s-.194-.621.015-.77.391.073.291.415-.267.66-.306.355ZM74.661 19.65s-.017-.461.158-.521.257.122.123.339-.313.409-.281.182ZM78.1 19.715s-.334-.33-.246-.492.268-.085.322.162.053.515-.076.33ZM76.282 19.709s-.228-.409-.1-.547.283-.006.262.25-.088.508-.162.297ZM77.491 22.022s-.395-.516-.246-.724.387-.07.413.284-.02.718-.167.44ZM79.559 22.192s-.46-.452-.339-.686.375-.123.442.225.079.712-.103.461ZM74.012 27.094s-.4-.639-.2-.865.456-.031.44.376-.108.828-.24.489ZM76.7 27.09s-.3-.688-.066-.889.453.04.38.446-.233.797-.314.443ZM79.335 27.105s-.26-.7-.017-.885.45.06.353.458-.266.785-.336.427ZM81.4 27.1s-.2-.728.051-.893.448.1.321.492-.341.764-.372.401Z"/><path class="cls-13" d="M75.926 17.977a1.139 1.139 0 0 1 .9 0Z"/><path class="cls-14" d="M78.532 29.767h-4.317a4.668 4.668 0 0 1-2.636-.691 3.094 3.094 0 0 1 2.227-.25s-1.073-1.079.216-1.109a4.82 4.82 0 0 1 2.3.568s-.272-.73.615-.568a1.637 1.637 0 0 1 1.175 1.026 3.558 3.558 0 0 0 2.469-4.149c-.379-3.48-3.162-5.716-4.531-5.774-1.011-.037-2.927 1.033-4.385 2.743 1.33-2.163 3.3-3.77 4.707-3.678a1.613 1.613 0 0 0-.45.092h.9a1.622 1.622 0 0 0-.447-.092c2.263-.144 5.987 4.1 6.161 8 .178 4.169-4.004 3.882-4.004 3.882Z"/><path class="cls-15" d="M77.073 29.821c0-.131-.25-.235-.553-.235s-.554.1-.554.235.246.23.554.23.553-.101.553-.23Z"/><path class="cls-16" d="M68.633 28.01a3.5 3.5 0 0 0 2.261 2.071 13.723 13.723 0 0 0 4.792.972 8.84 8.84 0 0 0 2.659-.321c1.4-.406 3.878-.919 4.487-2.444.987-2.463-1.966-3.266-3.784-2.839-2.2.514-4.321 1.477-6.6 1.656a8.543 8.543 0 0 1-1.165-.094c-1.29-.141-3.011-.26-2.65.999Z"/><path class="cls-17" d="M80.325 28.163a9.008 9.008 0 0 1-1.17.1c-2.276-.184-4.39-1.146-6.6-1.665-1.815-.422-4.765.379-3.78 2.84.605 1.529 3.093 2.041 4.486 2.452a9.115 9.115 0 0 0 2.661.317 13.533 13.533 0 0 0 4.794-.975 3.494 3.494 0 0 0 2.257-2.071c.362-1.255-1.355-1.139-2.648-.998Z"/></g></g></g></svg>