<svg xmlns="http://www.w3.org/2000/svg" xmlns:xlink="http://www.w3.org/1999/xlink" viewBox="0 0 54.942 90.37"><defs><linearGradient id="linear-gradient" x1="8.149" y1="23.138" x2="11.128" y2="23.138" gradientUnits="userSpaceOnUse"><stop offset="0" stop-color="#d3b994"/><stop offset="1" stop-color="#6c5030"/></linearGradient><linearGradient id="linear-gradient-2" x1="-634.327" y1="165.008" x2="-598.882" y2="165.008" gradientTransform="rotate(180 -293.877 86.831)" xlink:href="#linear-gradient"/><linearGradient id="linear-gradient-3" x1="8.149" y1="37.623" x2="46.573" y2="37.623" xlink:href="#linear-gradient"/><linearGradient id="linear-gradient-4" x1="43.097" y1="23.171" x2="46.877" y2="23.171" xlink:href="#linear-gradient"/><linearGradient id="linear-gradient-5" x1="18.608" y1="5.477" x2="36.609" y2="41.479" gradientUnits="userSpaceOnUse"><stop offset="0" stop-color="#fff"/><stop offset=".534" stop-color="#ca6d4c"/><stop offset=".995" stop-color="#a05c38"/></linearGradient><linearGradient id="linear-gradient-6" x1="8.149" y1="66.848" x2="11.128" y2="66.848" xlink:href="#linear-gradient"/><linearGradient id="linear-gradient-7" x1="-634.327" y1="121.298" x2="-598.882" y2="121.298" gradientTransform="rotate(180 -293.877 86.831)" xlink:href="#linear-gradient"/><linearGradient id="linear-gradient-8" x1="8.149" y1="81.333" x2="46.573" y2="81.333" xlink:href="#linear-gradient"/><linearGradient id="linear-gradient-9" x1="43.097" y1="66.879" x2="46.877" y2="66.879" xlink:href="#linear-gradient"/><linearGradient id="linear-gradient-10" x1="18.608" y1="49.188" x2="36.609" y2="85.19" xlink:href="#linear-gradient-5"/><linearGradient id="linear-gradient-11" x1="46.452" y1="46.405" x2="48.228" y2="46.405" gradientUnits="userSpaceOnUse"><stop offset="0" stop-color="#7e7f82"/><stop offset=".011" stop-color="#838487"/><stop offset=".087" stop-color="#9d9ea0"/><stop offset=".164" stop-color="#b0b1b2"/><stop offset=".243" stop-color="#bbbcbd"/><stop offset=".328" stop-color="#bfc0c1"/><stop offset="1" stop-color="#404040"/></linearGradient><radialGradient id="radial-gradient" cx="47.496" cy="40.468" r="1.526" gradientUnits="userSpaceOnUse"><stop offset="0" stop-color="#e2e3e2"/><stop offset=".232" stop-color="#b5b5b5"/><stop offset=".457" stop-color="#909190"/><stop offset=".667" stop-color="#767776"/><stop offset=".854" stop-color="#676767"/><stop offset="1" stop-color="#616161"/></radialGradient><radialGradient id="radial-gradient-2" cx="47.496" cy="50.705" r="1.526" xlink:href="#radial-gradient"/><style>.cls-2{fill:#b65534}.cls-3{fill:#5f2f16}.cls-6{opacity:.4}.cls-21,.cls-6{mix-blend-mode:multiply}.cls-21{fill:#7e7f82}.cls-20{fill:#fff}.cls-21{opacity:.2}.cls-26{fill:#cd5d39}</style></defs><g style="isolation:isolate"><g id="Layer_2" data-name="Layer 2"><g id="Layer_1-2" data-name="Layer 1"><path class="cls-2" d="M2.742 2.754h49.407V90.37H2.742z"/><path class="cls-3" d="M8.149 7.282v31.711l2.979-2.741V10.025L8.149 7.282z"/><path style="fill:url(#linear-gradient);mix-blend-mode:multiply;opacity:.4" d="m8.149 7.282 2.432 3.104-.074 25.364-2.358 3.243 2.979-2.741V10.025L8.149 7.282z"/><path class="cls-3" d="M43.595 10.025V36.252l2.978 2.741V7.282l-2.978 2.743z"/><path class="cls-3" d="m43.595 10.025 2.978-2.743H8.149l2.979 2.743h32.467z"/><path style="fill:url(#linear-gradient-2);mix-blend-mode:multiply;opacity:.4" d="m43.595 10.025 2.978-2.743-3.45 2.214-31.995.529h32.467z"/><path class="cls-3" d="m11.128 36.252-2.979 2.741h38.424l-2.978-2.741H11.128z"/><path style="fill:url(#linear-gradient-3)" d="m11.128 36.252-2.979 2.741h38.424l-2.978-2.741 1.34 2.17H8.942l2.186-2.17z" class="cls-6"/><path style="fill:url(#linear-gradient-4)" d="M46.599 39.04V7.302l-2.98 2.743 2.359-1.83v30.254l.621.571z" class="cls-6"/><path style="fill:url(#linear-gradient-5);opacity:.3;mix-blend-mode:multiply" d="M10.845 9.701h33.187v26.872H10.845z"/><path class="cls-3" d="M8.149 50.992V82.704l2.979-2.742V53.735l-2.979-2.743z"/><path style="fill:url(#linear-gradient-6);mix-blend-mode:multiply;opacity:.4" d="m8.149 50.992 2.432 3.104-.074 25.363-2.358 3.245 2.979-2.742V53.735l-2.979-2.743z"/><path class="cls-3" d="M43.595 53.735v26.227l2.978 2.742V50.992l-2.978 2.743z"/><path class="cls-3" d="m43.595 53.735 2.978-2.743H8.149l2.979 2.743h32.467z"/><path style="fill:url(#linear-gradient-7);mix-blend-mode:multiply;opacity:.4" d="m43.595 53.735 2.978-2.743-3.45 2.21-31.995.533h32.467z"/><path class="cls-3" d="m11.128 79.962-2.979 2.742h38.424l-2.978-2.742H11.128z"/><path style="fill:url(#linear-gradient-8)" d="m11.128 79.962-2.979 2.742h38.424l-2.978-2.742 1.34 2.17H8.942l2.186-2.17z" class="cls-6"/><path style="fill:url(#linear-gradient-9)" d="M46.599 82.748V51.01l-2.98 2.745 2.359-1.829v30.253l.621.569z" class="cls-6"/><path style="fill:url(#linear-gradient-10);opacity:.3;mix-blend-mode:multiply" d="M10.845 53.412h33.187v26.872H10.845z"/><path d="M47.792 50.624v-8.006a1.49 1.49 0 0 0-.988-2.613H46.8a1.494 1.494 0 0 0-.778 2.77v7.693a1.493 1.493 0 0 0 .778 2.769 1.49 1.49 0 0 0 .988-2.613Z" style="fill:#c8c6c4;mix-blend-mode:multiply"/><path d="M48.228 50.933a.944.944 0 0 1-.888.991.943.943 0 0 1-.888-.991v-9.056a.944.944 0 0 1 .888-.991.944.944 0 0 1 .888.991Z" style="fill:url(#linear-gradient-11)"/><path d="M47.34 41.338a.878.878 0 0 0-.888.868v.933a.679.679 0 0 1 1.358 0V49.2a.679.679 0 0 1-1.358 0v.932a.888.888 0 0 0 1.776 0v-7.926a.879.879 0 0 0-.888-.868Z" style="fill:#7e7f82;mix-blend-mode:multiply;opacity:.4"/><path d="M47.506 49c0 .345-.2.624-.453.624-.25 0-.452-.279-.452-.624v-5.682c0-.342.2-.622.452-.622.249 0 .453.28.453.622Z" style="opacity:.6;fill:#bfc0c1"/><path d="M48.735 41.066a1.5 1.5 0 1 1-1.495-1.5 1.5 1.5 0 0 1 1.495 1.5Z" style="fill:url(#radial-gradient)"/><path class="cls-20" d="M47.909 40.285c-.035.115-.251.153-.481.083s-.391-.219-.355-.334.249-.154.48-.083.39.219.356.334ZM48.307 40.507a.124.124 0 0 1-.238-.071.124.124 0 0 1 .238.071Z"/><path class="cls-21" d="M47.23 39.57a1.5 1.5 0 1 0 1.5 1.5 1.495 1.495 0 0 0-1.5-1.5Zm.07 2.568a1.271 1.271 0 1 1 1.271-1.271 1.271 1.271 0 0 1-1.271 1.271ZM47.23 49.808a1.5 1.5 0 1 0 1.5 1.5 1.5 1.5 0 0 0-1.5-1.5Zm.07 2.568a1.271 1.271 0 1 1 1.271-1.269 1.27 1.27 0 0 1-1.271 1.269Z"/><path d="M48.735 51.3a1.5 1.5 0 1 1-1.495-1.5 1.5 1.5 0 0 1 1.495 1.5Z" style="fill:url(#radial-gradient-2)"/><path class="cls-20" d="M47.909 50.524c-.035.115-.251.152-.481.082s-.391-.219-.355-.333.249-.154.48-.085.39.22.356.336ZM48.307 50.745a.122.122 0 0 1-.153.079.12.12 0 1 1 .153-.079Z"/><path class="cls-2" d="M54.942 0H0v90.37h2.793V2.757h49.356V90.37h2.793V0z"/><path style="fill:#843f24" d="M52.149 2.757V90.37h2.793V0l-2.793 2.757z"/><path style="fill:#843f24;opacity:.6;mix-blend-mode:multiply" d="M52.149 2.757V90.37h.926l-.706-87.821-.22.208z"/><path class="cls-2" d="M0 0v90.37h2.793V2.757L0 0z"/><path style="fill:#a54e2e" d="M2.793 2.757h49.356L54.942 0H0l2.793 2.757z"/><path class="cls-26" d="m54.942 0-2.793 2.757L54.925.53l.017-.53zM.105 0l2.794 2.757L.124.53.105 0z"/><path style="fill:#ff643c;mix-blend-mode:screen;opacity:.6" d="M2.793 90.37V2.757h49.019l-49.92-.849.901 88.462z"/></g></g></g></svg>