<svg xmlns="http://www.w3.org/2000/svg" viewBox="0 0 102.38 102.292"><defs><style>.cls-2{fill:#df2854}.cls-3{fill:#f7d245}.cls-5{fill:#eda328}.cls-6{fill:#ffbe32}.cls-9{fill:#fad843}.cls-10{fill:#dedede;mix-blend-mode:multiply}</style></defs><g style="isolation:isolate"><g id="Layer_2" data-name="Layer 2"><g id="OBJECTS"><path class="cls-2" d="M99.847 32.055v47.81l-40.934 22.427V49.998l40.934-17.943z"/><path class="cls-3" d="m66.142 46.915-1.113 2.559-2.666 1.369 1.995.904-.382 2.514 2.332-2.042 2.355.16-.511-2.118 1.804-2.34-2.581.653-1.233-1.659zM82.846 40.655l-.965 2.356-2.309 1.208 1.727.891-.331 2.33 2.022-1.841 2.044.209-.444-1.987 1.567-2.137-2.241.546-1.07-1.575zM99.847 36.892l-.918 1.315.389 1.871-1.792-.247-1.765 1.668.291-2.171-1.518-.874 2.021-1.068.848-2.189.935 1.501 1.509-.353v.547zM60.625 66.759l.75 2.664-2.462-.52V63.97l.891 1.103 2.384-.38-1.563 2.066zM76.224 55.836l-1.022 2.492-2.448 1.404 1.831.797-.35 2.422 2.142-2.036 2.164.072-.469-2.013 1.658-2.307-2.372.716-1.134-1.547zM91.615 49.23l-.891 2.299-2.133 1.244 1.595.794-.305 2.251 1.867-1.841 1.89.128-.411-1.895 1.45-2.111-2.073.606-.989-1.475zM66.966 73.296l-1.106 2.67-2.648 1.653 1.982.685-.38 2.546 2.316-2.286 2.339-.095-.507-2.056 1.792-2.527-2.563.93-1.225-1.52zM83.56 65.249l-.958 2.452-2.295 1.455 1.716.701-.329 2.359 2.009-2.054 2.031-.013-.441-1.933 1.558-2.299-2.228.786-1.063-1.454zM99.847 60.607l-.3.459.3 1.403v.415l-1.694-.044-1.757 1.853.283-2.197-1.501-.706 2.013-1.289.838-2.268.927 1.394.891-.308v1.288zM61.49 93.669l.538 2.083-2.489-.403-.626.644v-4.292l.459-1.104 1.297 1.474 2.727-1.147-1.906 2.745zM76.981 81.098l-1.015 2.593-2.432 1.665 1.819.596-.349 2.452 2.128-2.261 2.151-.161-.467-1.957 1.649-2.478-2.358.97-1.126-1.419zM92.276 72.848l-.886 2.388-2.12 1.471 1.585.62-.303 2.277 1.856-2.038 1.878-.076-.408-1.845 1.44-2.261-2.06.828-.982-1.364z"/><path style="fill:#c4234a" d="M58.913 49.998v52.294L3.751 90.995V38.701l55.162 11.297z"/><path class="cls-2" d="m0 37.93 58.913 12.068V33.824L0 21.755V37.93z"/><path class="cls-5" d="M23.83 42.811v52.294l12.135 2.486V45.297L23.83 42.811z"/><path class="cls-6" d="M23.83 26.637v16.174l12.135 2.486V29.123L23.83 26.637z"/><path style="fill:#ed426b" d="M102.38 30.943 58.913 49.998V33.824l43.467-17.585v14.704z"/><path class="cls-6" d="M85.786 38.218v49.354l-8.947 4.901V42.14l8.947-3.922z"/><path class="cls-3" d="M85.786 22.952v15.266l-8.947 3.922V26.572l8.947-3.62z"/><path style="fill:#ff6389" d="m102.38 16.239-16.592 6.717h-.009l-8.941 3.618h-.009L58.913 33.82l-22.939-4.695h-.009L23.83 26.636 0 21.755l22.938-7.44 9.109-2.956 17.599-5.711 12.171 2.445 12.965 2.604 27.598 5.542z"/><path class="cls-9" d="m85.779 22.956-8.941 3.618h-.009l-23.988-5.463h-.009l-12.065-2.745-17.829-4.051 9.109-2.956 16.001 3.451 12.427 2.683 25.304 5.463z"/><path class="cls-9" d="m74.782 10.697-14.307 6.796-7.634 3.618-16.867 8.014h-.009L23.83 26.636l16.937-8.27 7.281-3.556 13.769-6.717 12.965 2.604z"/><path class="cls-3" d="m50.975 51.197 1.064 2.274 2.385.776-1.726 1.297.407 2.361-2.13-1.478-2.123.677.405-2.203-1.715-1.933 2.371.108 1.062-1.879zM34.892 48.231l1.042 2.249 2.336.764-1.691 1.287.399 2.336-2.086-1.46-2.08.675.397-2.182-1.68-1.91 2.322.103 1.041-1.862zM19.135 45.326l1.021 2.223 2.288.752-1.656 1.277.391 2.312-2.044-1.441-2.039.672.389-2.16-1.646-1.888 2.276.097 1.02-1.844zM5.313 46.689l.38 2.286-1.942-1.377v-4.987l.944 2.065 2.242.742-1.624 1.271zM41.869 62.346l1.052 2.268 2.357.789-1.706 1.277.402 2.35-2.105-1.484-2.099.658.401-2.188-1.695-1.933 2.343.124 1.05-1.861zM25.971 59.284l1.03 2.243 2.309.776-1.671 1.268.394 2.325-2.062-1.466-2.057.656.393-2.166-1.661-1.911 2.296.119 1.029-1.844zM10.393 56.284l1.009 2.218 2.263.764-1.638 1.258.387 2.301-2.021-1.447-2.016.653.385-2.145-1.628-1.888 2.25.113 1.009-1.827zM50.975 77.278l1.064 2.291 2.385.816-1.726 1.268.407 2.368-2.13-1.514-2.123.642.405-2.196-1.715-1.961 2.371.147 1.062-1.861zM34.892 74.045l1.042 2.266 2.336.803-1.691 1.259.399 2.342-2.086-1.494-2.08.64.397-2.175-1.68-1.938 2.322.142 1.041-1.845zM19.135 70.878l1.021 2.241 2.288.79-1.656 1.249.391 2.318-2.044-1.474-2.039.637.389-2.153-1.646-1.915 2.276.135 1.02-1.828zM5.313 72.01l.38 2.295-1.942-1.412v-4.987l.944 2.083 2.242.777-1.624 1.244zM41.869 88.276l1.052 2.286 2.357.827-1.706 1.249.402 2.357-2.105-1.52-2.099.624.401-2.181-1.695-1.962 2.343.163 1.05-1.843zM25.971 84.95l1.03 2.26 2.309.814-1.671 1.24.394 2.332-2.062-1.5-2.057.622.393-2.159-1.661-1.939 2.296.157 1.029-1.827zM10.393 81.691l1.009 2.235 2.263.801-1.638 1.231.387 2.308-2.021-1.48-2.016.619.385-2.138-1.628-1.916 2.25.15 1.009-1.81zM58.913 63.97l-.737 1.279-2.482.096 1.609 1.517-.451 2.892 2.061-.851V63.97zM59.372 90.597l-.7 1.876-2.096-.544 1.398 1.986-.35 3.676 1.269-1.635.717-.961-.238-4.398z"/><path class="cls-10" d="M99.85 32.054v6.875L58.915 56.872v-6.875L99.85 32.054zM58.915 49.997v6.787L3.753 45.487V38.7l55.162 11.297z"/><path class="cls-5" d="M52.689 17.091S54.785-2.216 64.162.211s0 12.025 0 12.025 1.655-7.5-1.655-7.833-8.164 6.509-9.818 12.688Z"/><path class="cls-5" d="M71.333 18.745 65.7 22.717s-8.381-1.655-13.014-5.626l5.188-2.391s6.946 3.753 13.459 4.045Z"/><path class="cls-6" d="M52.689 17.091s20.52-13.239 24.271-6.4.662 9.267-1.545 10.039-9.715 1.987-9.715 1.987 3.507-7.584-.409-9.424a3.6 3.6 0 0 0-2.822-.012ZM34.044 18.745l5.63 3.972s8.381-1.655 13.015-5.626L47.5 14.7s-6.943 3.753-13.456 4.045Z"/><path class="cls-6" d="M52.689 17.091S50.592-2.216 41.215.211s0 12.025 0 12.025S39.56 4.734 42.87 4.4s8.164 6.512 9.819 12.691Z"/><path class="cls-5" d="M52.689 17.091s-20.521-13.239-24.272-6.4-.662 9.267 1.545 10.039 9.712 1.986 9.712 1.986-3.507-7.584.409-9.424a3.6 3.6 0 0 1 2.822-.012Z"/></g></g></g></svg>